<svg width="25" height="24" viewBox="0 0 25 24" fill="none" xmlns="http://www.w3.org/2000/svg">
<path d="M22.5 12.6667C22.4123 12.6672 22.3253 12.6504 22.2441 12.6172C22.1629 12.584 22.089 12.5351 22.0267 12.4733L12.5 2.94L2.97335 12.4733C2.84582 12.5825 2.68177 12.6396 2.51398 12.6331C2.3462 12.6267 2.18704 12.5571 2.06831 12.4384C1.94958 12.3196 1.88002 12.1605 1.87354 11.9927C1.86706 11.8249 1.92413 11.6609 2.03335 11.5333L12.0334 1.53333C12.1583 1.40916 12.3272 1.33947 12.5034 1.33947C12.6795 1.33947 12.8484 1.40916 12.9733 1.53333L22.9733 11.5333C23.0651 11.6269 23.1272 11.7455 23.1519 11.8742C23.1767 12.0029 23.1629 12.136 23.1124 12.2569C23.0619 12.3779 22.9769 12.4812 22.868 12.5541C22.7591 12.627 22.6311 12.6661 22.5 12.6667Z" fill="#999999"/>
<path d="M19.75 13.4834V21.333C19.75 21.4877 19.6885 21.6367 19.5791 21.7461C19.4698 21.8553 19.3215 21.9169 19.167 21.917H15.25V15.25H9.75V21.917H5.83301C5.67848 21.9169 5.5302 21.8553 5.4209 21.7461C5.3115 21.6367 5.25 21.4877 5.25 21.333V13.5293L12.501 6.25388L19.75 13.4834Z" stroke="#999999" stroke-width="1.5"/>
</svg>
