<svg width="25" height="24" viewBox="0 0 25 24" fill="none" xmlns="http://www.w3.org/2000/svg">
<path d="M6.38184 2.75H18.6846C19.3151 2.75 19.7497 3.23309 19.75 3.69727V20.8643C19.7499 21.1033 19.682 21.1883 19.6631 21.208C19.6413 21.2307 19.6059 21.2499 19.5469 21.25C19.4835 21.25 19.3609 21.2252 19.166 21.0684H19.165L13.6787 16.6611H13.6797C13.3546 16.3995 12.9363 16.2803 12.541 16.2803C12.1463 16.2804 11.7273 16.3993 11.4023 16.6611L5.90039 21.0674L5.89844 21.0693C5.71691 21.2156 5.57317 21.25 5.49707 21.25L5.44238 21.2441C5.39367 21.2329 5.35984 21.2072 5.34082 21.1816C5.29377 21.1179 5.25008 21.0187 5.25 20.8643V3.69727C5.25034 3.26642 5.71496 2.75 6.38184 2.75Z" stroke="#999999" stroke-width="1.5"/>
</svg>
